<?xml version="1.0" encoding="UTF-8" standalone="no"?>
<!-- Created with Inkscape (http://www.inkscape.org/) -->

<svg
   version="1.1"
   id="svg2"
   width="135.27003"
   height="133.5146"
   viewBox="0 0 135.27003 133.5146"
   sodipodi:docname="IEEEkitewhite.svg"
   inkscape:version="1.2.2 (b0a8486541, 2022-12-01)"
   xml:space="preserve"
   xmlns:inkscape="http://www.inkscape.org/namespaces/inkscape"
   xmlns:sodipodi="http://sodipodi.sourceforge.net/DTD/sodipodi-0.dtd"
   xmlns="http://www.w3.org/2000/svg"
   xmlns:svg="http://www.w3.org/2000/svg"><defs
     id="defs6"><clipPath
       clipPathUnits="userSpaceOnUse"
       id="clipPath18"><path
         d="M 0,198 H 348.671 V 0 H 0 Z"
         id="path16" /></clipPath></defs><sodipodi:namedview
     id="namedview4"
     pagecolor="#505050"
     bordercolor="#ffffff"
     borderopacity="1"
     inkscape:showpageshadow="0"
     inkscape:pageopacity="0"
     inkscape:pagecheckerboard="1"
     inkscape:deskcolor="#505050"
     showgrid="false"
     inkscape:zoom="0.52935606"
     inkscape:cx="399.54204"
     inkscape:cy="-56.67263"
     inkscape:window-width="1366"
     inkscape:window-height="713"
     inkscape:window-x="0"
     inkscape:window-y="55"
     inkscape:window-maximized="1"
     inkscape:current-layer="g10"><inkscape:page
       x="0"
       y="0"
       id="page8"
       width="135.27003"
       height="133.5146" /></sodipodi:namedview><g
     id="g10"
     inkscape:groupmode="layer"
     inkscape:label="IEEE"
     transform="matrix(1.3333333,0,0,-1.3333333,-2.979827,260.81572)"><path
       d="m 0,0 h -0.723 v 0.917 h 0.572 c 0.309,0 0.73,-0.032 0.73,-0.425 C 0.579,0.074 0.364,0 0,0 m 1.44,0.41 c 0,0.869 -0.574,1.143 -1.557,1.143 H -1.535 V -2.24 h 0.812 v 1.594 h 0.386 L 0.536,-2.24 h 0.967 l -0.979,1.663 c 0.513,0.043 0.916,0.29 0.916,0.987 m -1.577,-3.469 v 0.012 c -1.398,-0.012 -2.524,1.077 -2.524,2.706 0,1.62 1.126,2.698 2.524,2.698 1.365,0 2.527,-1.078 2.527,-2.698 0,-1.629 -1.162,-2.718 -2.527,-2.718 m 0,6.238 c -1.874,0 -3.54,-1.297 -3.54,-3.52 0,-2.232 1.666,-3.533 3.54,-3.533 1.862,0 3.53,1.301 3.53,3.533 0,2.223 -1.668,3.52 -3.53,3.52"
       style="fill:#ffffff;fill-opacity:1;fill-rule:evenodd;stroke:none"
       id="path160"
       transform="translate(70.0806,103.0005)"
       inkscape:label="Copyright" /><path
       d="m 0,0 c -0.278,-5.356 -0.347,-10.314 -0.742,-15.687 2.119,-0.19 4.512,-0.376 6.772,-0.047 L 5.356,-0.764 5.237,-0.049 C 3.515,-0.117 1.886,-0.187 0,0 m -13.242,15.042 c -2.611,-1.309 -6.453,-3.287 -6.03,-6.869 0.56,-1.955 2.677,-3.217 4.353,-4.025 9.261,-4.079 21.556,-4.219 31.335,-1.173 2.414,0.933 5.653,2.282 6.097,5.239 -0.026,2.444 -2.612,3.982 -4.471,4.917 v 0.116 c 0.648,0.257 1.393,0.486 2.065,0.558 v 0.065 c -3.276,0.586 -6.438,1.443 -9.61,2.282 0.611,-1.392 1.051,-2.86 1.561,-4.307 0.953,0.305 1.931,0.537 2.959,0.677 1.673,-0.651 4.068,-1.583 4.305,-3.675 C 19.508,6.892 17.368,5.939 16.016,5.146 8.844,2.535 0.774,2.281 -6.706,4.263 c -2.066,0.654 -5.048,1.489 -5.304,4.119 1.467,3.463 5.259,4.184 8.427,5.026 -1.628,1.048 -3.283,1.977 -4.862,3.144 -1.703,-0.094 -3.261,-0.84 -4.797,-1.51 M 2.604,35.939 1.676,32.958 -2.98,19.623 c 1.165,-0.119 2.609,0 3.754,-0.119 v -0.11 L 0.093,4.31 0.211,4.148 C 1.7,4.004 3.56,3.929 5.077,4.188 v 0.238 l -0.607,14.632 0.091,0.495 4.097,0.07 C 6.614,25.021 4.632,30.474 2.724,35.939 Z m -2.164,6.7 C 3.866,44.973 6.939,41.711 9.593,39.846 19.855,31.587 29.539,22.133 36.917,11.456 37.848,10.078 38.267,7.939 37.434,6.38 35.52,3.188 32.94,0.276 30.493,-2.681 v -0.16 C 24.392,-9.335 17.949,-16.013 10.986,-21.512 7.589,-23.581 4.47,-28.097 0.093,-25.299 c -9.965,7.283 -19.501,16.336 -27.586,26.047 -1.37,2.137 -3.511,3.886 -4.464,6.307 -1.331,3.278 1.603,5.632 3.282,8.1 8.242,10.167 18.479,20.136 29.115,27.484 m 8.59,9.71 -3.793,5.375 C 4.772,58.009 4.191,58.477 3.679,58.615 2.559,59.099 1.353,58.513 0.44,57.82 L -6.423,48.88 C -17.434,35.245 -30.468,22.51 -44.689,12.749 c -1.124,-0.878 -2.796,-1.735 -3.143,-3.183 -0.374,-1.303 0.305,-2.377 1.112,-3.186 11.387,-7.846 22.275,-17.156 31.965,-27.775 1.721,-1.809 3.116,-3.604 4.798,-5.302 2.834,-3.773 6.165,-7.572 8.77,-11.618 0.816,-0.857 0.957,-2.258 2.235,-2.675 1,-0.346 2.235,-0.582 3.188,0 l 0.949,0.953 c 11.783,16.692 26.726,31.682 43.421,43.783 1.672,1.494 4.863,2.05 4.909,4.82 -0.119,1.278 -0.862,2.537 -1.96,3.236 l -0.274,0.043 C 42.69,17.69 34.685,24.3 27.143,31.798 l -8.334,8.707 c -3.377,3.744 -6.658,7.889 -9.779,11.844 m -9.821,-7.658 c 3.35,2.607 7.565,0.443 10.384,-1.955 2.952,-2.257 6.027,-4.813 8.725,-7.426 l 0.491,-0.282 C 26.282,28.095 33.222,20.389 38.924,12.241 39.848,10.823 40.665,9.217 40.149,7.335 38.247,2.582 34.384,-1.208 31.006,-5.356 23.698,-13.225 15.989,-20.836 7.358,-26.909 c -1.746,-1.233 -4.1,-2.374 -6.191,-1.395 -6.353,3.326 -11.71,8.773 -17.27,13.737 -6.449,5.98 -12.921,12.941 -17.809,20.222 -0.726,1.025 -0.93,2.284 -0.909,3.632 0.629,2.515 2.35,4.583 3.98,6.702 5.776,7.36 12.849,14.341 19.992,20.718 0.165,0.163 0.471,0.51 0.729,0.677 3.068,2.652 6.116,5 9.329,7.307"
       style="fill:#ffffff;fill-opacity:1;fill-rule:nonzero;stroke:none"
       id="path156"
       transform="translate(50.1724,136.8193)"
       inkscape:label="Logo" /></g><style
     type="text/css"
     id="style576">
	.st0{fill:#FFFFFF;}
	.st1{fill:#0F2D52;}
</style></svg>
